<mxfile host="app.diagrams.net" modified="2022-01-24T04:06:46.868Z" agent="5.0 (X11)" etag="l_cvYFIuPbDxikmEhM3Q" version="16.4.5" type="github">
  <diagram id="3_IuSsijQLkdxKShMri2" name="Page-1">
    <mxGraphModel dx="1354" dy="793" grid="1" gridSize="10" guides="1" tooltips="1" connect="1" arrows="1" fold="1" page="1" pageScale="1" pageWidth="850" pageHeight="1100" math="0" shadow="0">
      <root>
        <mxCell id="0" />
        <mxCell id="1" parent="0" />
        <mxCell id="Vhy40gpbhN77Kjy2Do2X-1" value="haproxy" style="rounded=0;whiteSpace=wrap;html=1;" vertex="1" parent="1">
          <mxGeometry x="240" y="200" width="120" height="40" as="geometry" />
        </mxCell>
        <mxCell id="Vhy40gpbhN77Kjy2Do2X-2" value="haproxy" style="rounded=0;whiteSpace=wrap;html=1;" vertex="1" parent="1">
          <mxGeometry x="520" y="200" width="120" height="40" as="geometry" />
        </mxCell>
        <mxCell id="Vhy40gpbhN77Kjy2Do2X-4" style="edgeStyle=orthogonalEdgeStyle;rounded=0;orthogonalLoop=1;jettySize=auto;html=1;exitX=1;exitY=0.5;exitDx=0;exitDy=0;entryX=0.5;entryY=0;entryDx=0;entryDy=0;" edge="1" parent="1" source="Vhy40gpbhN77Kjy2Do2X-3" target="Vhy40gpbhN77Kjy2Do2X-2">
          <mxGeometry relative="1" as="geometry" />
        </mxCell>
        <mxCell id="Vhy40gpbhN77Kjy2Do2X-5" style="edgeStyle=orthogonalEdgeStyle;rounded=0;orthogonalLoop=1;jettySize=auto;html=1;exitX=0;exitY=0.5;exitDx=0;exitDy=0;entryX=0.5;entryY=0;entryDx=0;entryDy=0;" edge="1" parent="1" source="Vhy40gpbhN77Kjy2Do2X-3" target="Vhy40gpbhN77Kjy2Do2X-1">
          <mxGeometry relative="1" as="geometry" />
        </mxCell>
        <mxCell id="Vhy40gpbhN77Kjy2Do2X-3" value="keepalived" style="rounded=0;whiteSpace=wrap;html=1;" vertex="1" parent="1">
          <mxGeometry x="400" y="120" width="80" height="40" as="geometry" />
        </mxCell>
        <mxCell id="Vhy40gpbhN77Kjy2Do2X-6" value="" style="rounded=0;whiteSpace=wrap;html=1;" vertex="1" parent="1">
          <mxGeometry x="140" y="320" width="240" height="160" as="geometry" />
        </mxCell>
        <mxCell id="Vhy40gpbhN77Kjy2Do2X-7" value="" style="rounded=0;whiteSpace=wrap;html=1;" vertex="1" parent="1">
          <mxGeometry x="500" y="320" width="240" height="160" as="geometry" />
        </mxCell>
        <mxCell id="Vhy40gpbhN77Kjy2Do2X-8" value="" style="endArrow=none;html=1;rounded=0;entryX=0.5;entryY=1;entryDx=0;entryDy=0;exitX=0.5;exitY=0;exitDx=0;exitDy=0;" edge="1" parent="1" source="Vhy40gpbhN77Kjy2Do2X-9" target="Vhy40gpbhN77Kjy2Do2X-1">
          <mxGeometry width="50" height="50" relative="1" as="geometry">
            <mxPoint x="180" y="270" as="sourcePoint" />
            <mxPoint x="450" y="380" as="targetPoint" />
          </mxGeometry>
        </mxCell>
        <mxCell id="Vhy40gpbhN77Kjy2Do2X-9" value="api" style="rounded=0;whiteSpace=wrap;html=1;" vertex="1" parent="1">
          <mxGeometry x="150" y="330" width="60" height="40" as="geometry" />
        </mxCell>
        <mxCell id="Vhy40gpbhN77Kjy2Do2X-10" value="api" style="rounded=0;whiteSpace=wrap;html=1;" vertex="1" parent="1">
          <mxGeometry x="230" y="330" width="60" height="40" as="geometry" />
        </mxCell>
        <mxCell id="Vhy40gpbhN77Kjy2Do2X-11" value="api" style="rounded=0;whiteSpace=wrap;html=1;" vertex="1" parent="1">
          <mxGeometry x="310" y="330" width="60" height="40" as="geometry" />
        </mxCell>
        <mxCell id="Vhy40gpbhN77Kjy2Do2X-12" value="api" style="rounded=0;whiteSpace=wrap;html=1;" vertex="1" parent="1">
          <mxGeometry x="510" y="330" width="60" height="40" as="geometry" />
        </mxCell>
        <mxCell id="Vhy40gpbhN77Kjy2Do2X-13" value="api" style="rounded=0;whiteSpace=wrap;html=1;" vertex="1" parent="1">
          <mxGeometry x="590" y="330" width="60" height="40" as="geometry" />
        </mxCell>
        <mxCell id="Vhy40gpbhN77Kjy2Do2X-14" value="api" style="rounded=0;whiteSpace=wrap;html=1;" vertex="1" parent="1">
          <mxGeometry x="670" y="330" width="60" height="40" as="geometry" />
        </mxCell>
        <mxCell id="Vhy40gpbhN77Kjy2Do2X-15" value="" style="endArrow=none;html=1;rounded=0;entryX=0.5;entryY=1;entryDx=0;entryDy=0;exitX=0.5;exitY=0;exitDx=0;exitDy=0;" edge="1" parent="1" source="Vhy40gpbhN77Kjy2Do2X-10" target="Vhy40gpbhN77Kjy2Do2X-1">
          <mxGeometry width="50" height="50" relative="1" as="geometry">
            <mxPoint x="400" y="430" as="sourcePoint" />
            <mxPoint x="450" y="380" as="targetPoint" />
          </mxGeometry>
        </mxCell>
        <mxCell id="Vhy40gpbhN77Kjy2Do2X-16" value="" style="endArrow=none;html=1;rounded=0;entryX=0.5;entryY=1;entryDx=0;entryDy=0;exitX=0.5;exitY=0;exitDx=0;exitDy=0;" edge="1" parent="1" source="Vhy40gpbhN77Kjy2Do2X-11" target="Vhy40gpbhN77Kjy2Do2X-1">
          <mxGeometry width="50" height="50" relative="1" as="geometry">
            <mxPoint x="400" y="430" as="sourcePoint" />
            <mxPoint x="450" y="380" as="targetPoint" />
          </mxGeometry>
        </mxCell>
        <mxCell id="Vhy40gpbhN77Kjy2Do2X-17" value="" style="endArrow=none;dashed=1;html=1;rounded=0;entryX=0.5;entryY=1;entryDx=0;entryDy=0;exitX=0.5;exitY=0;exitDx=0;exitDy=0;" edge="1" parent="1" source="Vhy40gpbhN77Kjy2Do2X-14" target="Vhy40gpbhN77Kjy2Do2X-1">
          <mxGeometry width="50" height="50" relative="1" as="geometry">
            <mxPoint x="400" y="430" as="sourcePoint" />
            <mxPoint x="450" y="380" as="targetPoint" />
          </mxGeometry>
        </mxCell>
        <mxCell id="Vhy40gpbhN77Kjy2Do2X-18" value="" style="endArrow=none;dashed=1;html=1;rounded=0;entryX=0.5;entryY=1;entryDx=0;entryDy=0;exitX=0.5;exitY=0;exitDx=0;exitDy=0;" edge="1" parent="1" source="Vhy40gpbhN77Kjy2Do2X-13" target="Vhy40gpbhN77Kjy2Do2X-1">
          <mxGeometry width="50" height="50" relative="1" as="geometry">
            <mxPoint x="400" y="430" as="sourcePoint" />
            <mxPoint x="450" y="380" as="targetPoint" />
          </mxGeometry>
        </mxCell>
        <mxCell id="Vhy40gpbhN77Kjy2Do2X-19" value="" style="endArrow=none;dashed=1;html=1;rounded=0;entryX=0.5;entryY=1;entryDx=0;entryDy=0;exitX=0.5;exitY=0;exitDx=0;exitDy=0;" edge="1" parent="1" source="Vhy40gpbhN77Kjy2Do2X-12" target="Vhy40gpbhN77Kjy2Do2X-1">
          <mxGeometry width="50" height="50" relative="1" as="geometry">
            <mxPoint x="400" y="430" as="sourcePoint" />
            <mxPoint x="450" y="380" as="targetPoint" />
          </mxGeometry>
        </mxCell>
        <mxCell id="Vhy40gpbhN77Kjy2Do2X-20" value="" style="endArrow=none;dashed=1;html=1;rounded=0;entryX=0.5;entryY=1;entryDx=0;entryDy=0;exitX=0.5;exitY=0;exitDx=0;exitDy=0;" edge="1" parent="1" source="Vhy40gpbhN77Kjy2Do2X-9" target="Vhy40gpbhN77Kjy2Do2X-2">
          <mxGeometry width="50" height="50" relative="1" as="geometry">
            <mxPoint x="400" y="430" as="sourcePoint" />
            <mxPoint x="450" y="380" as="targetPoint" />
          </mxGeometry>
        </mxCell>
        <mxCell id="Vhy40gpbhN77Kjy2Do2X-21" value="" style="endArrow=none;dashed=1;html=1;rounded=0;entryX=0.5;entryY=1;entryDx=0;entryDy=0;exitX=0.5;exitY=0;exitDx=0;exitDy=0;" edge="1" parent="1" source="Vhy40gpbhN77Kjy2Do2X-10" target="Vhy40gpbhN77Kjy2Do2X-2">
          <mxGeometry width="50" height="50" relative="1" as="geometry">
            <mxPoint x="400" y="430" as="sourcePoint" />
            <mxPoint x="450" y="380" as="targetPoint" />
          </mxGeometry>
        </mxCell>
        <mxCell id="Vhy40gpbhN77Kjy2Do2X-22" value="" style="endArrow=none;dashed=1;html=1;rounded=0;entryX=0.5;entryY=1;entryDx=0;entryDy=0;exitX=0.5;exitY=0;exitDx=0;exitDy=0;" edge="1" parent="1" source="Vhy40gpbhN77Kjy2Do2X-11" target="Vhy40gpbhN77Kjy2Do2X-2">
          <mxGeometry width="50" height="50" relative="1" as="geometry">
            <mxPoint x="400" y="430" as="sourcePoint" />
            <mxPoint x="450" y="380" as="targetPoint" />
          </mxGeometry>
        </mxCell>
        <mxCell id="Vhy40gpbhN77Kjy2Do2X-23" value="" style="endArrow=none;html=1;rounded=0;entryX=0.5;entryY=1;entryDx=0;entryDy=0;exitX=0.5;exitY=0;exitDx=0;exitDy=0;" edge="1" parent="1" source="Vhy40gpbhN77Kjy2Do2X-12" target="Vhy40gpbhN77Kjy2Do2X-2">
          <mxGeometry width="50" height="50" relative="1" as="geometry">
            <mxPoint x="400" y="430" as="sourcePoint" />
            <mxPoint x="450" y="380" as="targetPoint" />
          </mxGeometry>
        </mxCell>
        <mxCell id="Vhy40gpbhN77Kjy2Do2X-24" value="" style="endArrow=none;html=1;rounded=0;entryX=0.5;entryY=1;entryDx=0;entryDy=0;exitX=0.5;exitY=0;exitDx=0;exitDy=0;" edge="1" parent="1" source="Vhy40gpbhN77Kjy2Do2X-13" target="Vhy40gpbhN77Kjy2Do2X-2">
          <mxGeometry width="50" height="50" relative="1" as="geometry">
            <mxPoint x="400" y="430" as="sourcePoint" />
            <mxPoint x="450" y="380" as="targetPoint" />
          </mxGeometry>
        </mxCell>
        <mxCell id="Vhy40gpbhN77Kjy2Do2X-26" value="" style="endArrow=none;html=1;rounded=0;entryX=0.5;entryY=1;entryDx=0;entryDy=0;exitX=0.5;exitY=0;exitDx=0;exitDy=0;" edge="1" parent="1" source="Vhy40gpbhN77Kjy2Do2X-14" target="Vhy40gpbhN77Kjy2Do2X-2">
          <mxGeometry width="50" height="50" relative="1" as="geometry">
            <mxPoint x="400" y="430" as="sourcePoint" />
            <mxPoint x="450" y="380" as="targetPoint" />
          </mxGeometry>
        </mxCell>
        <mxCell id="Vhy40gpbhN77Kjy2Do2X-29" style="edgeStyle=orthogonalEdgeStyle;rounded=0;orthogonalLoop=1;jettySize=auto;html=1;exitX=0.5;exitY=1;exitDx=0;exitDy=0;entryX=0.5;entryY=1;entryDx=0;entryDy=0;" edge="1" parent="1" source="Vhy40gpbhN77Kjy2Do2X-27" target="Vhy40gpbhN77Kjy2Do2X-3">
          <mxGeometry relative="1" as="geometry">
            <mxPoint x="50" y="160" as="targetPoint" />
            <Array as="points">
              <mxPoint x="340" y="490" />
              <mxPoint x="440" y="490" />
            </Array>
          </mxGeometry>
        </mxCell>
        <mxCell id="Vhy40gpbhN77Kjy2Do2X-49" style="edgeStyle=orthogonalEdgeStyle;rounded=0;sketch=0;orthogonalLoop=1;jettySize=auto;html=1;exitX=0.75;exitY=0;exitDx=0;exitDy=0;entryX=0.75;entryY=1;entryDx=0;entryDy=0;" edge="1" parent="1" source="Vhy40gpbhN77Kjy2Do2X-27" target="Vhy40gpbhN77Kjy2Do2X-44">
          <mxGeometry relative="1" as="geometry" />
        </mxCell>
        <mxCell id="Vhy40gpbhN77Kjy2Do2X-27" value="blackbox" style="rounded=0;whiteSpace=wrap;html=1;" vertex="1" parent="1">
          <mxGeometry x="310" y="430" width="60" height="40" as="geometry" />
        </mxCell>
        <mxCell id="Vhy40gpbhN77Kjy2Do2X-30" style="edgeStyle=orthogonalEdgeStyle;rounded=0;orthogonalLoop=1;jettySize=auto;html=1;exitX=0.5;exitY=1;exitDx=0;exitDy=0;entryX=0.5;entryY=1;entryDx=0;entryDy=0;" edge="1" parent="1" source="Vhy40gpbhN77Kjy2Do2X-28" target="Vhy40gpbhN77Kjy2Do2X-3">
          <mxGeometry relative="1" as="geometry">
            <mxPoint x="460" y="190" as="targetPoint" />
            <Array as="points">
              <mxPoint x="540" y="490" />
              <mxPoint x="440" y="490" />
            </Array>
          </mxGeometry>
        </mxCell>
        <mxCell id="Vhy40gpbhN77Kjy2Do2X-43" style="edgeStyle=orthogonalEdgeStyle;rounded=0;sketch=0;orthogonalLoop=1;jettySize=auto;html=1;exitX=0.75;exitY=0;exitDx=0;exitDy=0;entryX=0.75;entryY=1;entryDx=0;entryDy=0;" edge="1" parent="1" source="Vhy40gpbhN77Kjy2Do2X-28" target="Vhy40gpbhN77Kjy2Do2X-41">
          <mxGeometry relative="1" as="geometry" />
        </mxCell>
        <mxCell id="Vhy40gpbhN77Kjy2Do2X-28" value="blackbox" style="rounded=0;whiteSpace=wrap;html=1;" vertex="1" parent="1">
          <mxGeometry x="510" y="430" width="60" height="40" as="geometry" />
        </mxCell>
        <mxCell id="Vhy40gpbhN77Kjy2Do2X-37" value="" style="rounded=0;whiteSpace=wrap;html=1;" vertex="1" parent="1">
          <mxGeometry x="590" y="380" width="140" height="90" as="geometry" />
        </mxCell>
        <mxCell id="Vhy40gpbhN77Kjy2Do2X-38" value="app" style="rounded=0;whiteSpace=wrap;html=1;" vertex="1" parent="1">
          <mxGeometry x="660" y="420" width="60" height="40" as="geometry" />
        </mxCell>
        <mxCell id="Vhy40gpbhN77Kjy2Do2X-40" style="edgeStyle=orthogonalEdgeStyle;rounded=0;orthogonalLoop=1;jettySize=auto;html=1;exitX=1;exitY=0.5;exitDx=0;exitDy=0;entryX=0;entryY=0.75;entryDx=0;entryDy=0;sketch=0;" edge="1" parent="1" source="Vhy40gpbhN77Kjy2Do2X-28" target="Vhy40gpbhN77Kjy2Do2X-38">
          <mxGeometry relative="1" as="geometry">
            <Array as="points">
              <mxPoint x="590" y="450" />
              <mxPoint x="590" y="450" />
            </Array>
          </mxGeometry>
        </mxCell>
        <mxCell id="Vhy40gpbhN77Kjy2Do2X-42" style="edgeStyle=orthogonalEdgeStyle;rounded=0;sketch=0;orthogonalLoop=1;jettySize=auto;html=1;exitX=0.25;exitY=1;exitDx=0;exitDy=0;entryX=0.25;entryY=0;entryDx=0;entryDy=0;" edge="1" parent="1" source="Vhy40gpbhN77Kjy2Do2X-41" target="Vhy40gpbhN77Kjy2Do2X-28">
          <mxGeometry relative="1" as="geometry" />
        </mxCell>
        <mxCell id="Vhy40gpbhN77Kjy2Do2X-41" value="promethe" style="rounded=0;whiteSpace=wrap;html=1;" vertex="1" parent="1">
          <mxGeometry x="510" y="380" width="60" height="40" as="geometry" />
        </mxCell>
        <mxCell id="Vhy40gpbhN77Kjy2Do2X-48" style="edgeStyle=orthogonalEdgeStyle;rounded=0;sketch=0;orthogonalLoop=1;jettySize=auto;html=1;exitX=0.25;exitY=1;exitDx=0;exitDy=0;entryX=0.25;entryY=0;entryDx=0;entryDy=0;" edge="1" parent="1" source="Vhy40gpbhN77Kjy2Do2X-44" target="Vhy40gpbhN77Kjy2Do2X-27">
          <mxGeometry relative="1" as="geometry" />
        </mxCell>
        <mxCell id="Vhy40gpbhN77Kjy2Do2X-44" value="promethe" style="rounded=0;whiteSpace=wrap;html=1;" vertex="1" parent="1">
          <mxGeometry x="310" y="380" width="60" height="40" as="geometry" />
        </mxCell>
        <mxCell id="Vhy40gpbhN77Kjy2Do2X-45" value="" style="rounded=0;whiteSpace=wrap;html=1;" vertex="1" parent="1">
          <mxGeometry x="150" y="380" width="140" height="90" as="geometry" />
        </mxCell>
        <mxCell id="Vhy40gpbhN77Kjy2Do2X-47" style="edgeStyle=orthogonalEdgeStyle;rounded=0;sketch=0;orthogonalLoop=1;jettySize=auto;html=1;exitX=0;exitY=0.5;exitDx=0;exitDy=0;entryX=1;entryY=0.75;entryDx=0;entryDy=0;" edge="1" parent="1" source="Vhy40gpbhN77Kjy2Do2X-27" target="Vhy40gpbhN77Kjy2Do2X-46">
          <mxGeometry relative="1" as="geometry">
            <Array as="points">
              <mxPoint x="300" y="450" />
              <mxPoint x="300" y="450" />
            </Array>
          </mxGeometry>
        </mxCell>
        <mxCell id="Vhy40gpbhN77Kjy2Do2X-46" value="app" style="rounded=0;whiteSpace=wrap;html=1;" vertex="1" parent="1">
          <mxGeometry x="160" y="420" width="60" height="40" as="geometry" />
        </mxCell>
      </root>
    </mxGraphModel>
  </diagram>
</mxfile>
